<svg width="11" height="7" viewBox="0 0 11 7" fill="none" xmlns="http://www.w3.org/2000/svg">
<path d="M0.358018 5.82758C0.16029 5.63481 0.156267 5.31826 0.349032 5.12053L4.99198 0.358042C5.18475 0.160314 5.5013 0.156291 5.69903 0.349056V0.349056C5.89676 0.541821 5.90078 0.858378 5.70802 1.05611L1.06507 5.81859C0.872303 6.01632 0.555746 6.02034 0.358018 5.82758V5.82758Z" fill="#5F8FD6"/>
<path d="M5.02478 0.34902C5.22252 0.156262 5.53907 0.160295 5.73183 0.358029L10.3746 5.12066C10.5674 5.3184 10.5634 5.63496 10.3656 5.82771V5.82771C10.1679 6.02047 9.85133 6.01644 9.65857 5.8187L5.01577 1.05607C4.82302 0.858335 4.82705 0.541779 5.02478 0.34902V0.34902Z" fill="#5F8FD6"/>
</svg>
